<svg width="42" height="31" viewBox="0 0 42 31" fill="none" xmlns="http://www.w3.org/2000/svg">
<path d="M41.2222 6.65065C41.2438 5.97935 40.9406 5.32965 40.4208 4.91815C39.4463 4.16015 38.3851 4.07355 37.8654 4.67995C36.2195 6.67235 29.5926 5.95765 22.9441 3.05565C18.3746 1.06325 13.0904 0.175349 8.5425 0.630149C-1.33287 1.60465 -0.315019 1.84295 0.63787 26.0332L1.69902 26.5746C2.73853 27.116 2.82511 27.116 5.7704 26.4663C10.4699 25.4268 18.1363 25.5134 22.5976 26.6179C26.604 27.6141 27.427 27.4409 25.7811 25.8816C22.7492 23.0229 10.6648 21.377 5.7704 23.1745C4.7742 23.5427 3.8431 23.8242 3.6915 23.8242C3.1717 23.8242 4.1462 17.3056 3.6481 3.81365C3.6698 3.81365 13.8916 0.933349 21.493 4.80985C25.6078 6.91055 30.6321 8.27485 34.4004 8.29655H38.0603C38.0603 25.9032 38.2119 27.7442 37.5839 27.7442C37.3024 27.7442 35.5915 27.5491 33.7723 27.3109C30.2423 26.8561 29.7442 26.9429 30.4588 27.9606C31.1518 28.9352 35.5049 29.9963 38.2336 30.1263C40.7458 30.2562 40.4425 29.888 40.5508 28.3504C40.6591 26.4663 40.5508 27.9606 41.2222 6.65065Z" fill="#000001"/>
</svg>
